<svg width="400" height="400" viewBox="0 0 400 400" fill="none" xmlns="http://www.w3.org/2000/svg">
<path d="M223.477 334.289C223.477 334.29 223.478 334.291 223.479 334.293C223.482 334.3 223.487 334.313 223.495 334.332C223.51 334.371 223.534 334.434 223.56 334.521C223.61 334.696 223.67 334.968 223.694 335.33C223.742 336.051 223.649 337.148 223.039 338.571C221.828 341.398 218.562 345.544 210.252 350.574C210.178 350.529 210.087 350.474 209.981 350.408C209.637 350.193 209.128 349.867 208.479 349.424C207.183 348.538 205.327 347.185 203.098 345.327C198.638 341.611 192.685 335.871 186.73 327.79C174.826 311.634 162.902 286.102 162.902 248.619V248.573C162.903 248.542 162.903 248.494 162.904 248.432C162.906 248.307 162.908 248.123 162.915 247.886C162.928 247.41 162.955 246.721 163.008 245.873C163.114 244.176 163.326 241.844 163.75 239.302C164.603 234.183 166.295 228.344 169.592 225.047L169.738 224.9V224.693H169.238C169.738 224.693 169.738 224.693 169.738 224.692V224.656C169.738 224.634 169.737 224.601 169.735 224.561C169.733 224.479 169.727 224.361 169.717 224.211C169.696 223.911 169.655 223.483 169.572 222.96C169.407 221.915 169.077 220.484 168.416 218.942C167.091 215.85 164.432 212.31 159.143 210.547C149.177 207.225 145.812 197.239 145.812 190.514V190.014H145.289C145.272 190.014 145.246 190.013 145.212 190.013C145.143 190.012 145.04 190.01 144.905 190.006C144.635 189.998 144.237 189.981 143.729 189.948C142.714 189.882 141.259 189.75 139.513 189.485C136.018 188.956 131.366 187.898 126.721 185.786C122.076 183.675 117.454 180.518 113.993 175.799C110.536 171.085 108.215 164.781 108.215 156.334V145.812L107.992 145.664L107.991 145.663C107.99 145.663 107.989 145.662 107.987 145.661C107.984 145.659 107.979 145.655 107.973 145.65C107.959 145.641 107.937 145.627 107.908 145.607C107.852 145.569 107.767 145.51 107.656 145.433C107.434 145.277 107.107 145.044 106.69 144.736C105.856 144.121 104.662 143.205 103.229 142.011C100.361 139.621 96.5368 136.115 92.7139 131.655C85.0612 122.727 77.4531 110.022 77.4531 94.8105V94.4854L77.1562 94.3535H77.1553C77.1546 94.3532 77.1537 94.3522 77.1523 94.3516C77.1492 94.3502 77.1444 94.3478 77.1377 94.3447C77.1241 94.3386 77.103 94.3292 77.0752 94.3164C77.0193 94.2906 76.9345 94.2513 76.8242 94.1982C76.6037 94.0921 76.2784 93.9313 75.8633 93.7139C75.0326 93.2787 73.8427 92.6169 72.4131 91.7168C69.5532 89.9161 65.7389 87.1618 61.9258 83.3486C54.3845 75.8074 46.8569 64.1375 46.6953 47.5049C46.8532 47.5195 47.0454 47.5363 47.2705 47.5596C48.0082 47.6357 49.1025 47.7625 50.5215 47.9619C53.3594 48.3607 57.4981 49.052 62.6904 50.2236C73.076 52.567 87.6759 56.8297 104.517 64.5039C138.195 79.851 180.842 108.846 216.672 163.444L217.321 164.434L217.578 163.278L217.579 163.274C217.58 163.271 217.581 163.266 217.582 163.26C217.585 163.246 217.59 163.226 217.597 163.198C217.61 163.143 217.631 163.06 217.659 162.95C217.716 162.731 217.804 162.406 217.929 161.992C218.178 161.164 218.574 159.977 219.155 158.552C220.317 155.699 222.219 151.896 225.175 148.096C231.077 140.508 241.193 132.908 258.105 132.908H258.158C258.195 132.909 258.251 132.91 258.324 132.912C258.472 132.916 258.693 132.924 258.978 132.94C259.548 132.973 260.378 133.039 261.406 133.171C263.464 133.435 266.316 133.963 269.483 135.019C275.819 137.131 283.392 141.344 288.438 149.755L288.629 150.073L288.988 149.983H288.989L288.99 149.982C288.991 149.982 288.993 149.982 288.995 149.981C289 149.98 289.008 149.978 289.018 149.976C289.037 149.971 289.066 149.964 289.104 149.954C289.182 149.935 289.298 149.908 289.45 149.871C289.755 149.798 290.206 149.692 290.788 149.559C291.953 149.292 293.644 148.919 295.749 148.493C299.96 147.64 305.822 146.574 312.43 145.722C324.575 144.155 339.169 143.32 350.652 145.81C349.078 145.937 346.97 146.124 344.465 146.384C338.795 146.972 331.09 147.935 322.956 149.434C314.824 150.932 306.248 152.968 298.841 155.705C291.451 158.436 285.147 161.892 281.641 166.275L281.52 166.428L281.532 166.621V166.623C281.532 166.624 281.533 166.626 281.533 166.629C281.534 166.635 281.533 166.643 281.534 166.655C281.536 166.679 281.537 166.715 281.54 166.763C281.545 166.858 281.552 167.002 281.56 167.191C281.574 167.57 281.591 168.133 281.598 168.862C281.611 170.32 281.585 172.445 281.426 175.103C281.107 180.419 280.255 187.865 278.128 196.374C273.873 213.394 264.517 234.65 244.113 251.653L243.395 252.253L244.293 252.517L244.294 252.518C244.295 252.518 244.298 252.519 244.302 252.52C244.308 252.521 244.318 252.524 244.331 252.528C244.358 252.536 244.399 252.549 244.453 252.565C244.561 252.599 244.722 252.649 244.933 252.717C245.354 252.853 245.973 253.061 246.762 253.343C248.341 253.907 250.599 254.77 253.311 255.966C258.735 258.359 265.964 262.08 273.19 267.394C287.578 277.973 301.905 294.825 302.035 320.05C301.922 320.091 301.779 320.145 301.607 320.204C301.115 320.375 300.39 320.613 299.465 320.877C297.615 321.406 294.968 322.04 291.792 322.464C285.436 323.311 276.984 323.308 268.545 319.933L267.324 319.443L267.912 320.62V320.621C267.912 320.622 267.914 320.622 267.914 320.623C267.915 320.625 267.917 320.629 267.919 320.634C267.924 320.643 267.931 320.658 267.94 320.677C267.959 320.715 267.988 320.772 268.024 320.848C268.098 320.999 268.205 321.222 268.341 321.511C268.613 322.088 268.998 322.925 269.45 323.961C270.354 326.034 271.523 328.904 272.585 332.09C273.648 335.278 274.599 338.772 275.074 342.097C275.534 345.319 275.536 348.335 274.797 350.751C274.761 350.761 274.721 350.772 274.678 350.784C274.428 350.851 274.058 350.946 273.579 351.059C272.622 351.283 271.233 351.574 269.512 351.839C266.068 352.369 261.301 352.793 256.009 352.369C245.429 351.523 232.784 347.299 224.35 333.804L223.493 334.283C223.482 334.289 223.479 334.291 223.479 334.291L223.477 334.289Z" fill="url(#paint0_linear_56_2)" stroke="white"/>
<path d="M349 146.734C364.248 163.186 367.064 174.227 366.759 180.573C366.512 185.704 364.14 189.42 360.807 191.864C357.461 194.319 353.132 195.5 349 195.5H348.996C344.864 195.499 340.535 194.317 337.189 191.861C333.857 189.415 331.486 185.698 331.241 180.566C330.938 174.221 333.755 163.182 349 146.734ZM338.741 174.223C337.488 173.973 336.268 174.784 336.016 176.037C335.004 181.082 335.982 185.071 339.063 187.754C341.517 189.89 345.144 191.087 349 191.087C350.278 191.087 351.315 190.051 351.315 188.772C351.315 187.495 350.279 186.457 349 186.457C346.403 186.457 343.98 185.716 342.407 184.509L342.103 184.261C340.423 182.799 339.849 180.473 340.557 176.949C340.808 175.696 339.996 174.476 338.742 174.224L338.741 174.223Z" fill="url(#paint1_linear_56_2)" stroke="white"/>
<defs>
<linearGradient id="paint0_linear_56_2" x1="59" y1="47" x2="263.5" y2="353" gradientUnits="userSpaceOnUse">
<stop stop-color="#009975"/>
<stop offset="0.211538" stop-color="#00CFCF"/>
<stop offset="0.384615" stop-color="#FFD166"/>
<stop offset="0.581731" stop-color="#FF4D6D"/>
<stop offset="0.798077" stop-color="#003366"/>
<stop offset="1" stop-color="#FFF8F2"/>
</linearGradient>
<linearGradient id="paint1_linear_56_2" x1="332.242" y1="146.007" x2="368.268" y2="185.227" gradientUnits="userSpaceOnUse">
<stop stop-color="#009975"/>
<stop offset="0.211538" stop-color="#00CFCF"/>
<stop offset="0.384615" stop-color="#FFD166"/>
<stop offset="0.581731" stop-color="#FF4D6D"/>
<stop offset="0.798077" stop-color="#003366"/>
<stop offset="1" stop-color="#FFF8F2"/>
</linearGradient>
</defs>
</svg>
