<svg width="160" height="160" viewBox="0 0 160 160" fill="none" xmlns="http://www.w3.org/2000/svg">
<g id="nft_n1_semilla de luz" clip-path="url(#clip0_107_395)">
<rect width="160" height="160" fill="#F0DAAC"/>
<g id="colibri">
<g id="aura">
<path d="M83.483 101.716C86.5751 103.311 88.1211 101.185 88.0245 96.0638L85.9953 97.4166C86.3992 99.5746 85.8504 101.378 83.483 101.716Z" fill="white"/>
<path d="M79.2314 103.214C81.8403 104.036 83.7729 103.649 83.8695 98.5761L81.8886 99.5424C82.2925 101.7 81.3572 102.876 79.2314 103.214Z" fill="white"/>
<path d="M69.0855 131.429C72.8057 131.188 74.6899 106.038 73.6753 106.983C70.1484 110.268 68.699 111.717 68.699 111.717C68.699 111.717 65.2618 131.678 69.0855 131.429Z" fill="white"/>
<path d="M69.0855 111.669L72.6124 108.674C72.6124 108.674 72.3225 124.784 69.7136 125.487C68.4574 125.825 69.0855 111.669 69.0855 111.669Z" fill="white"/>
<path d="M67.1047 126.163C68.4438 120.802 68.699 112.104 68.699 112.104L64.7373 114.954C64.7373 114.954 58.9396 129.883 58.9396 136.841C58.9396 138.768 58.9396 140.657 60.6306 141.479C62.3216 142.3 65.5309 132.463 67.1047 126.163Z" fill="white"/>
<path d="M64.9789 114.906L68.6507 112.442C68.6507 112.442 64.1575 134.521 62.8047 133.507C61.6292 132.625 64.9789 114.906 64.9789 114.906Z" fill="white"/>
<path d="M68.3125 102.49L78.0719 101.233C73.5652 108.197 70.751 111.534 64.5923 115.244C65.249 109.016 65.8848 105.844 68.3125 102.49Z" fill="white"/>
<path d="M53.8184 147.614C58.9274 145.14 66.9114 104.615 66.9114 104.615C63.9573 109.475 62.3369 112.283 59.7127 117.902C60.0761 117.923 51.1515 148.906 53.8184 147.614Z" fill="white"/>
<path d="M62.4181 112.49L64.3508 108.915C64.7024 109.527 58.7424 137.867 56.5239 137.034C55.4384 136.626 62.4181 112.49 62.4181 112.49Z" fill="white"/>
<path d="M46.8612 33.6908C55.3161 38.3289 62.5043 42.9883 72.4675 49.7793L74.2551 57.7994L53.7218 50.8905C52.1114 49.0931 51.6982 48.0419 52.1757 46.0591C49.2898 43.6771 48.4861 42.283 49.3252 39.6334C46.8431 37.4882 46.1892 35.8862 46.8612 33.6908Z" fill="white"/>
<path d="M79.4246 59.6836L81.1639 55.6252L72.3708 49.731C72.8403 52.7862 72.9388 54.3656 74.3034 57.8477L79.4246 59.6836Z" fill="white"/>
<path d="M73.3854 54.2725L73.4337 55.1421L52.0308 46.8805C52.0087 46.7648 52.1066 46.3724 52.1757 46.0591L73.3854 54.2725Z" fill="white"/>
<path d="M72.8057 52.3399L72.6607 51.5669L49.3252 39.6334C49.2271 39.9533 49.0353 40.8413 49.0353 40.9862L72.8057 52.3399Z" fill="white"/>
<path d="M104.693 41.4693C106.805 40.1869 107.422 39.3949 108.558 38.039C106.246 38.1245 104.905 38.0276 102.422 37.5559C98.3715 36.4732 96.3217 36.3443 92.9525 36.7346C86.6647 37.5115 83.1448 41.566 81.8403 47.4602C80.7944 52.1861 81.7845 55.3681 79.0864 59.5386L82.0819 60.7948C84.4563 56.7418 85.6088 54.4174 89.4256 51.5669C90.8347 49.1401 91.3888 48.0107 92.9525 46.1074L98.6535 42.2907C101.558 42.8186 104.084 42.7181 104.693 41.4693Z" fill="white"/>
<path d="M101.987 60.5532L84.4009 57.0746C84.4009 57.0746 80.3865 60.8858 82.1785 61.133C87.7829 61.906 89.7155 67.5587 89.7155 67.5587C95.0704 78.8967 69.1821 99.3008 68.3125 102.634C87.3964 103.166 106.529 84.7101 101.987 60.5532Z" fill="white"/>
<path d="M104.596 41.5176L108.703 41.7592C104.115 46.8131 102.939 51.1712 102.132 60.9397C101.166 62.051 99.1849 61.9543 97.0108 59.6836C94.9816 61.5195 93.0974 61.2296 91.2615 59.0555C89.3293 60.2382 88.3976 60.2666 87.1065 58.7656C84.922 59.2106 83.8695 58.3791 84.0144 56.5915C84.257 53.5995 86.8908 53.289 89.4739 51.1804C90.5429 48.9655 91.213 47.744 93.2907 45.8176C97.687 45.9742 99.0922 45.2652 99.3782 42.2907C99.3782 42.2907 102.376 42.77 103.63 42.2423C104.113 42.0391 104.596 41.5176 104.596 41.5176Z" fill="white"/>
<path d="M88.9424 65.7228C86.1402 60.0218 73.2405 57.7027 61.3553 53.3545C63.2396 62.8723 71.7428 69.0081 79.4246 72.6317L66.0418 81.8596C59.8576 95.8705 57.2487 107.756 59.4228 118.868C62.464 112.042 64.6384 108.41 68.699 102.006C83.7753 87.4625 94.8367 75.5305 88.9424 65.7228Z" fill="white"/>
<path d="M93.1457 45.8659C93.5276 46.2945 95.9962 46.029 96.5698 45.8659C97.146 45.937 97.7288 45.4901 98.2073 45.1678C98.6858 44.8455 99.0267 44.362 99.1651 43.8095C99.3035 43.257 99.5231 42.7738 99.3782 42.2907H98.0737C98.0737 42.6772 98.2993 43.2278 98.2073 43.5951C98.1153 43.9625 97.9571 44.2988 97.6389 44.5131C97.3207 44.7274 96.9529 44.9469 96.5698 44.8996C96.1867 44.8523 95.8637 44.6048 95.6097 44.3198C95.0489 44.4115 92.9439 45.5229 93.1457 45.8659Z" fill="white"/>
<path d="M95.3682 44.5614L94.9817 41.3727C93.8922 41.5194 93.239 41.8232 92.7109 42.9187C92.4306 44.0731 92.2929 45.1626 92.7109 46.349L95.3682 44.5614Z" fill="white"/>
<path d="M98.3636 43.0154C98.3636 44.2161 97.347 45.1895 96.0929 45.1895C94.8388 45.1895 93.8221 44.2161 93.8221 43.0154C93.8221 41.8146 94.8388 40.8413 96.0929 40.8413C97.347 40.8413 98.3636 41.8146 98.3636 43.0154Z" fill="white"/>
<path d="M97.3007 42.7255C97.3007 43.2325 96.9113 43.6434 96.4311 43.6434C95.9508 43.6434 95.5614 43.2325 95.5614 42.7255C95.5614 42.2185 95.9508 41.8075 96.4311 41.8075C96.9113 41.8075 97.3007 42.2185 97.3007 42.7255Z" fill="white"/>
<path d="M108.509 38.0391C120.157 33.9533 127.062 31.3235 136 30.8403C124.228 33.6988 117.196 36.2459 103.726 42.2907L108.509 38.0391Z" fill="white"/>
<path d="M103.726 42.2907C116.942 36.1926 124.18 33.5021 136 30.8403C135.42 32.3381 119.857 36.7414 108.558 41.8559L103.726 42.2907Z" fill="white"/>
<path d="M75.318 81.9079L79.5696 72.4384C70.2497 68.254 66.3822 63.7023 61.3553 53.3545C43.0694 47.4388 30.1728 42.8475 22.7044 42.1457C22.5789 44.6183 23.3395 46.034 27.7773 48.6681C27.9921 52.131 28.7435 53.8841 33.9131 55.8668C35.0555 59.8968 36.2781 61.6144 40.2422 63.0172C43.2323 67.6817 44.9437 69.3971 48.1174 69.3463C50.4673 72.9947 52.0815 74.4939 56.4273 74.4676C58.4215 77.2406 59.7275 78.473 63.3362 78.4776C65.5969 81.6252 66.9137 81.7164 69.2788 81.3281C70.7641 83.2304 72.1058 83.32 75.318 81.9079Z" fill="white"/>
<path d="M77.4921 71.4721L78.0719 71.762L69.8585 81.9562C69.6165 81.7371 69.4896 81.5995 69.2788 81.3281L77.4921 71.4721Z" fill="white"/>
<path d="M75.2697 70.3126L74.7865 70.0227L63.3362 78.4776C63.5134 78.8117 63.7074 79.0384 64.0126 79.3473L75.2697 70.3126Z" fill="white"/>
<path d="M71.9843 68.0902L72.2742 68.3801L57.2487 75.5305C56.8797 75.1206 56.7249 74.8852 56.4273 74.4676L71.9843 68.0902Z" fill="white"/>
<path d="M69.1821 65.6262L69.617 66.061L48.8421 70.4092C48.5288 69.9985 48.3861 69.7635 48.1174 69.3463L69.1821 65.6262Z" fill="white"/>
<path d="M66.6215 62.5341L66.9114 62.9689L41.1119 64.3217C40.7471 63.8166 40.5664 63.5293 40.2422 63.0172L66.6215 62.5341Z" fill="white"/>
<path d="M34.3963 57.3645L64.689 59.6836L64.4474 59.2488L33.9131 55.8668C34.0819 56.4484 34.1698 56.7734 34.3963 57.3645Z" fill="white"/>
<path d="M62.6598 55.9634L62.9497 56.5432L28.2604 51.4703C27.88 50.3554 27.7801 49.8168 27.7773 48.6681L62.6598 55.9634Z" fill="white"/>
<path d="M79.1348 72.2451L79.5696 72.4384L75.318 81.9079L74.6416 82.1978L79.1348 72.2451Z" fill="white"/>
</g>
<g id="patas">
<path id="Vector 8" d="M83.483 101.716C86.5751 103.311 88.1211 101.185 88.0245 96.0635L85.9953 97.4163C86.3992 99.5743 85.8504 101.378 83.483 101.716Z" fill="black"/>
<path id="Vector 9" d="M79.2314 103.214C81.8404 104.035 83.7729 103.649 83.8696 98.5757L81.8887 99.542C82.2926 101.7 81.3572 102.876 79.2314 103.214Z" fill="black"/>
</g>
<g id="cola">
<path id="Vector 11" d="M69.0855 131.429C72.8057 131.188 74.6899 106.037 73.6753 106.983C70.1484 110.268 68.699 111.717 68.699 111.717C68.699 111.717 65.2619 131.678 69.0855 131.429Z" fill="#030459"/>
<path id="Vector 12" d="M69.0856 111.669L72.6125 108.673C72.6125 108.673 72.3226 124.784 69.7137 125.486C68.4575 125.825 69.0856 111.669 69.0856 111.669Z" fill="#48B9E3"/>
<path id="Vector 13" d="M67.1047 126.163C68.4439 120.802 68.6991 112.104 68.6991 112.104L64.7373 114.954C64.7373 114.954 58.9397 129.883 58.9397 136.84C58.9397 138.768 58.9397 140.657 60.6307 141.478C62.3217 142.3 65.531 132.463 67.1047 126.163Z" fill="#030459"/>
<path id="Vector 14" d="M64.9789 114.906L68.6508 112.442C68.6508 112.442 64.1576 134.521 62.8048 133.507C61.6293 132.625 64.9789 114.906 64.9789 114.906Z" fill="#48B9E3"/>
<path id="Vector 10" d="M68.3126 102.49L78.0719 101.233C73.5653 108.197 70.751 111.534 64.5924 115.244C65.2491 109.016 65.8849 105.844 68.3126 102.49Z" fill="#0E9E04"/>
<path id="Vector 15" d="M53.8185 147.614C58.9275 145.14 66.9115 104.615 66.9115 104.615C63.9574 109.475 62.337 112.283 59.7127 117.901C60.0761 117.923 51.1516 148.906 53.8185 147.614Z" fill="#030459"/>
<path id="Vector 16" d="M62.4182 112.49L64.3509 108.915C64.7025 109.526 58.7425 137.867 56.524 137.034C55.4384 136.626 62.4182 112.49 62.4182 112.49Z" fill="#48B9E3"/>
</g>
<g id="ala_izq">
<path id="Vector 27" d="M46.8612 33.6904C55.3161 38.3285 62.5043 42.9879 72.4675 49.7789L74.2551 57.799L53.7218 50.8901C52.1114 49.0927 51.6982 48.0415 52.1757 46.0587C49.2898 43.6767 48.4861 42.2826 49.3252 39.633C46.8431 37.4879 46.1892 35.8858 46.8612 33.6904Z" fill="#076300"/>
<path id="Vector 26" d="M79.4246 59.6836L81.1639 55.6252L72.3708 49.731C72.8403 52.7861 72.9388 54.3656 74.3034 57.8477L79.4246 59.6836Z" fill="#0E9E04"/>
<path id="Vector 29" d="M73.3854 54.2724L73.4337 55.1421L52.0308 46.8804C52.0086 46.7648 52.1066 46.3723 52.1757 46.0591L73.3854 54.2724Z" fill="#0ACF5C"/>
<path id="Vector 28" d="M72.8057 52.3398L72.6608 51.5668L49.3253 39.6333C49.2272 39.9532 49.0354 40.8411 49.0354 40.9861L72.8057 52.3398Z" fill="#0ACF5C"/>
</g>
<g id="plumaje">
<path id="Vector 1" d="M104.693 41.4691C106.805 40.1867 107.422 39.3947 108.558 38.0388C106.246 38.1243 104.905 38.0273 102.422 37.5557C98.3714 36.473 96.3216 36.3441 92.9525 36.7343C86.6647 37.5113 83.1448 41.5657 81.8403 47.46C80.7944 52.1858 81.7844 55.3679 79.0864 59.5384L82.0819 60.7946C84.4563 56.7416 85.6088 54.4172 89.4256 51.5667C90.8346 49.1399 91.3888 48.0104 92.9525 46.1072L98.6535 42.2904C101.558 42.8183 104.084 42.7178 104.693 41.4691Z" fill="#0E9E04"/>
<path id="Vector 6" d="M101.987 60.5528L84.401 57.0742C84.401 57.0742 80.3865 60.8854 82.1785 61.1326C87.7829 61.9056 89.7155 67.5583 89.7155 67.5583C95.0704 78.8963 69.1821 99.3004 68.3125 102.634C87.3964 103.165 106.529 84.7096 101.987 60.5528Z" fill="#48B9E3"/>
<path id="Vector 2" d="M104.596 41.5176L108.703 41.7591C104.115 46.813 102.939 51.1711 102.132 60.9397C101.166 62.0509 99.185 61.9543 97.0109 59.6835C94.9817 61.5194 93.0975 61.2296 91.2616 59.0554C89.3294 60.2381 88.3977 60.2665 87.1066 58.7656C84.9221 59.2105 83.8696 58.3791 84.0145 56.5914C84.2571 53.5994 86.8909 53.289 89.474 51.1803C90.543 48.9655 91.213 47.7439 93.2907 45.8175C97.6871 45.9742 99.0923 45.2651 99.3783 42.2906C99.3783 42.2906 102.376 42.7699 103.63 42.2423C104.113 42.039 104.596 41.5176 104.596 41.5176Z" fill="#030459"/>
<path id="Vector 7" d="M88.9424 65.7228C86.1402 60.0218 73.2405 57.7027 61.3553 53.3545C63.2395 62.8723 71.7427 69.0081 79.4246 72.6317L66.0417 81.8596C59.8576 95.8705 57.2486 107.756 59.4228 118.868C62.464 112.042 64.6384 108.41 68.699 102.006C83.7752 87.4625 94.8367 75.5305 88.9424 65.7228Z" fill="#0E9E04"/>
</g>
<g id="ojo">
<path id="Ellipse 3" d="M93.1458 45.8657C93.5277 46.2943 95.9963 46.0289 96.5699 45.8657C97.146 45.9369 97.7288 45.49 98.2073 45.1677C98.6859 44.8453 99.0267 44.3619 99.1651 43.8094C99.3035 43.2569 99.5232 42.7737 99.3783 42.2905H98.0738C98.0738 42.677 98.2994 43.2276 98.2073 43.595C98.1153 43.9624 97.9571 44.2986 97.639 44.513C97.3208 44.7273 96.953 44.9468 96.5699 44.8995C96.1867 44.8522 95.8637 44.6047 95.6098 44.3197C95.049 44.4114 92.9439 45.5227 93.1458 45.8657Z" fill="#474646"/>
<path id="Vector 3" d="M95.3683 44.5613L94.9817 41.3726C93.8923 41.5192 93.2391 41.8231 92.711 42.9186C92.4307 44.0729 92.293 45.1625 92.711 46.3489L95.3683 44.5613Z" fill="white"/>
<ellipse id="Ellipse 1" cx="96.0929" cy="43.0149" rx="2.27074" ry="2.17412" fill="black"/>
<ellipse id="Ellipse 2" cx="96.431" cy="42.7251" rx="0.869646" ry="0.91796" fill="white"/>
</g>
<g id="pico">
<path id="Vector 4" d="M108.509 38.0391C120.157 33.9533 127.062 31.3235 136 30.8403C124.228 33.6988 117.196 36.2459 103.726 42.2907L108.509 38.0391Z" fill="black"/>
<path id="Vector 5" d="M103.726 42.2907C116.942 36.1926 124.181 33.5021 136 30.8403C135.42 32.3381 119.857 36.7414 108.558 41.8559L103.726 42.2907Z" fill="#474646"/>
</g>
<g id="ala_der">
<path id="ala" d="M75.318 81.9077L79.5696 72.4382C70.2497 68.2538 66.3822 63.7021 61.3553 53.3543C43.0693 47.4386 30.1728 42.8473 22.7044 42.1455C22.5789 44.6181 23.3395 46.0338 27.7773 48.6679C27.9921 52.1308 28.7435 53.8839 33.9131 55.8666C35.0555 59.8966 36.2781 61.6142 40.2422 63.017C43.2323 67.6815 44.9437 69.3969 48.1174 69.3461C50.4673 72.9945 52.0815 74.4937 56.4273 74.4674C58.4215 77.2404 59.7275 78.4728 63.3362 78.4774C65.5969 81.625 66.9137 81.7162 69.2788 81.3279C70.7641 83.2302 72.1058 83.3198 75.318 81.9077Z" fill="#076300"/>
<path id="Vector 18" d="M77.4921 71.4722L78.0719 71.7621L69.8586 81.9562C69.6165 81.7372 69.4896 81.5995 69.2788 81.3282L77.4921 71.4722Z" fill="#0ACF5C"/>
<path id="Vector 19" d="M75.2697 70.3123L74.7865 70.0225L63.3362 78.4774C63.5134 78.8114 63.7074 79.0381 64.0126 79.347L75.2697 70.3123Z" fill="#0ACF5C"/>
<path id="Vector 20" d="M71.9844 68.0898L72.2743 68.3797L57.2487 75.5302C56.8797 75.1203 56.725 74.8849 56.4274 74.4672L71.9844 68.0898Z" fill="#0ACF5C"/>
<path id="Vector 21" d="M69.1822 65.626L69.617 66.0608L48.8421 70.409C48.5288 69.9983 48.3861 69.7633 48.1174 69.3461L69.1822 65.626Z" fill="#0ACF5C"/>
<path id="Vector 22" d="M66.6216 62.5337L66.9115 62.9685L41.112 64.3213C40.7472 63.8162 40.5664 63.5289 40.2423 63.0168L66.6216 62.5337Z" fill="#0ACF5C"/>
<path id="Vector 23" d="M34.3963 57.3644L64.689 59.6835L64.4475 59.2487L33.9132 55.8667C34.0819 56.4483 34.1698 56.7733 34.3963 57.3644Z" fill="#0ACF5C"/>
<path id="Vector 24" d="M62.6598 55.9633L62.9497 56.5431L28.2605 51.4702C27.88 50.3553 27.7801 49.8167 27.7773 48.668L62.6598 55.9633Z" fill="#0ACF5C"/>
<path id="Vector 25" d="M79.1348 72.2451L79.5696 72.4384L75.318 81.9079L74.6416 82.1977L79.1348 72.2451Z" fill="#0ACF5C"/>
</g>
</g>
</g>
<defs>
<clipPath id="clip0_107_395">
<rect width="160" height="160" fill="white"/>
</clipPath>
</defs>
</svg>
